<mxfile host="Electron" modified="2024-10-22T10:26:00.885Z" agent="Mozilla/5.0 (Windows NT 10.0; Win64; x64) AppleWebKit/537.36 (KHTML, like Gecko) draw.io/21.8.2 Chrome/114.0.5735.289 Electron/25.8.1 Safari/537.36" etag="N3IZ37KsHJb_DWu9vNfQ" version="21.8.2" type="device">
  <diagram name="Страница — 1" id="mKskRHK6bT0LIDgKmpQN">
    <mxGraphModel dx="1185" dy="683" grid="1" gridSize="10" guides="1" tooltips="1" connect="1" arrows="1" fold="1" page="1" pageScale="1" pageWidth="1169" pageHeight="827" math="0" shadow="0">
      <root>
        <mxCell id="0" />
        <mxCell id="1" parent="0" />
        <mxCell id="9lNRE88ECmn4ZLgAbCR3-1" value="&lt;font style=&quot;font-size: 14px;&quot; face=&quot;Times New Roman&quot;&gt;Class Animals&lt;/font&gt;" style="rounded=0;whiteSpace=wrap;html=1;" vertex="1" parent="1">
          <mxGeometry x="537" y="100" width="95" height="60" as="geometry" />
        </mxCell>
        <mxCell id="9lNRE88ECmn4ZLgAbCR3-37" style="edgeStyle=orthogonalEdgeStyle;rounded=0;orthogonalLoop=1;jettySize=auto;html=1;entryX=0.25;entryY=1;entryDx=0;entryDy=0;" edge="1" parent="1" source="9lNRE88ECmn4ZLgAbCR3-2" target="9lNRE88ECmn4ZLgAbCR3-1">
          <mxGeometry relative="1" as="geometry" />
        </mxCell>
        <mxCell id="9lNRE88ECmn4ZLgAbCR3-38" value="&lt;font style=&quot;font-size: 14px;&quot; face=&quot;Times New Roman&quot;&gt;Extends&lt;/font&gt;" style="edgeLabel;html=1;align=center;verticalAlign=middle;resizable=0;points=[];" vertex="1" connectable="0" parent="9lNRE88ECmn4ZLgAbCR3-37">
          <mxGeometry x="-0.2741" y="-2" relative="1" as="geometry">
            <mxPoint as="offset" />
          </mxGeometry>
        </mxCell>
        <mxCell id="9lNRE88ECmn4ZLgAbCR3-2" value="&lt;font style=&quot;font-size: 14px;&quot; face=&quot;Times New Roman&quot;&gt;Class homeAnimals&lt;/font&gt;" style="rounded=0;whiteSpace=wrap;html=1;" vertex="1" parent="1">
          <mxGeometry x="335" y="200" width="120" height="60" as="geometry" />
        </mxCell>
        <mxCell id="9lNRE88ECmn4ZLgAbCR3-42" style="edgeStyle=orthogonalEdgeStyle;rounded=0;orthogonalLoop=1;jettySize=auto;html=1;entryX=0.75;entryY=1;entryDx=0;entryDy=0;" edge="1" parent="1" source="9lNRE88ECmn4ZLgAbCR3-3" target="9lNRE88ECmn4ZLgAbCR3-1">
          <mxGeometry relative="1" as="geometry" />
        </mxCell>
        <mxCell id="9lNRE88ECmn4ZLgAbCR3-43" value="&lt;font style=&quot;font-size: 14px;&quot; face=&quot;Times New Roman&quot;&gt;Extends&lt;/font&gt;" style="edgeLabel;html=1;align=center;verticalAlign=middle;resizable=0;points=[];" vertex="1" connectable="0" parent="9lNRE88ECmn4ZLgAbCR3-42">
          <mxGeometry x="-0.2453" relative="1" as="geometry">
            <mxPoint as="offset" />
          </mxGeometry>
        </mxCell>
        <mxCell id="9lNRE88ECmn4ZLgAbCR3-3" value="&lt;font style=&quot;font-size: 14px;&quot; face=&quot;Times New Roman&quot;&gt;Class packAnimals&lt;/font&gt;" style="rounded=0;whiteSpace=wrap;html=1;" vertex="1" parent="1">
          <mxGeometry x="710" y="200" width="120" height="60" as="geometry" />
        </mxCell>
        <mxCell id="9lNRE88ECmn4ZLgAbCR3-23" style="edgeStyle=orthogonalEdgeStyle;rounded=0;orthogonalLoop=1;jettySize=auto;html=1;entryX=0.25;entryY=1;entryDx=0;entryDy=0;" edge="1" parent="1" source="9lNRE88ECmn4ZLgAbCR3-4" target="9lNRE88ECmn4ZLgAbCR3-2">
          <mxGeometry relative="1" as="geometry">
            <Array as="points">
              <mxPoint x="285" y="290" />
              <mxPoint x="365" y="290" />
            </Array>
          </mxGeometry>
        </mxCell>
        <mxCell id="9lNRE88ECmn4ZLgAbCR3-24" value="&lt;font style=&quot;font-size: 14px;&quot; face=&quot;Times New Roman&quot;&gt;Extends&lt;/font&gt;" style="edgeLabel;html=1;align=center;verticalAlign=middle;resizable=0;points=[];" vertex="1" connectable="0" parent="9lNRE88ECmn4ZLgAbCR3-23">
          <mxGeometry x="0.0746" relative="1" as="geometry">
            <mxPoint as="offset" />
          </mxGeometry>
        </mxCell>
        <mxCell id="9lNRE88ECmn4ZLgAbCR3-4" value="&lt;font style=&quot;font-size: 14px;&quot; face=&quot;Times New Roman&quot;&gt;Class &lt;br&gt;Dog&lt;br&gt;&lt;/font&gt;" style="rounded=0;whiteSpace=wrap;html=1;" vertex="1" parent="1">
          <mxGeometry x="250" y="320" width="70" height="60" as="geometry" />
        </mxCell>
        <mxCell id="9lNRE88ECmn4ZLgAbCR3-25" style="edgeStyle=orthogonalEdgeStyle;rounded=0;orthogonalLoop=1;jettySize=auto;html=1;entryX=0.5;entryY=1;entryDx=0;entryDy=0;" edge="1" parent="1" source="9lNRE88ECmn4ZLgAbCR3-5" target="9lNRE88ECmn4ZLgAbCR3-2">
          <mxGeometry relative="1" as="geometry" />
        </mxCell>
        <mxCell id="9lNRE88ECmn4ZLgAbCR3-26" value="&lt;font style=&quot;font-size: 14px;&quot; face=&quot;Times New Roman&quot;&gt;Extends&lt;/font&gt;" style="edgeLabel;html=1;align=center;verticalAlign=middle;resizable=0;points=[];" vertex="1" connectable="0" parent="9lNRE88ECmn4ZLgAbCR3-25">
          <mxGeometry x="0.0889" relative="1" as="geometry">
            <mxPoint as="offset" />
          </mxGeometry>
        </mxCell>
        <mxCell id="9lNRE88ECmn4ZLgAbCR3-5" value="&lt;font style=&quot;font-size: 14px;&quot; face=&quot;Times New Roman&quot;&gt;Class &lt;br&gt;Cat&lt;br&gt;&lt;/font&gt;" style="rounded=0;whiteSpace=wrap;html=1;" vertex="1" parent="1">
          <mxGeometry x="360" y="320" width="70" height="60" as="geometry" />
        </mxCell>
        <mxCell id="9lNRE88ECmn4ZLgAbCR3-27" style="edgeStyle=orthogonalEdgeStyle;rounded=0;orthogonalLoop=1;jettySize=auto;html=1;entryX=0.75;entryY=1;entryDx=0;entryDy=0;" edge="1" parent="1" source="9lNRE88ECmn4ZLgAbCR3-6" target="9lNRE88ECmn4ZLgAbCR3-2">
          <mxGeometry relative="1" as="geometry">
            <Array as="points">
              <mxPoint x="505" y="290" />
              <mxPoint x="425" y="290" />
            </Array>
          </mxGeometry>
        </mxCell>
        <mxCell id="9lNRE88ECmn4ZLgAbCR3-28" value="&lt;font style=&quot;font-size: 14px;&quot; face=&quot;Times New Roman&quot;&gt;Extends&lt;/font&gt;" style="edgeLabel;html=1;align=center;verticalAlign=middle;resizable=0;points=[];" vertex="1" connectable="0" parent="9lNRE88ECmn4ZLgAbCR3-27">
          <mxGeometry x="0.0095" relative="1" as="geometry">
            <mxPoint as="offset" />
          </mxGeometry>
        </mxCell>
        <mxCell id="9lNRE88ECmn4ZLgAbCR3-6" value="&lt;font style=&quot;font-size: 14px;&quot; face=&quot;Times New Roman&quot;&gt;Class &lt;br&gt;Hamster&lt;br&gt;&lt;/font&gt;" style="rounded=0;whiteSpace=wrap;html=1;" vertex="1" parent="1">
          <mxGeometry x="470" y="320" width="70" height="60" as="geometry" />
        </mxCell>
        <mxCell id="9lNRE88ECmn4ZLgAbCR3-7" value="&lt;font style=&quot;font-size: 14px;&quot; face=&quot;Times New Roman&quot;&gt;Class &lt;br&gt;Horse&lt;br&gt;&lt;/font&gt;" style="rounded=0;whiteSpace=wrap;html=1;" vertex="1" parent="1">
          <mxGeometry x="630" y="320" width="70" height="60" as="geometry" />
        </mxCell>
        <mxCell id="9lNRE88ECmn4ZLgAbCR3-8" value="&lt;font style=&quot;font-size: 14px;&quot; face=&quot;Times New Roman&quot;&gt;Class &lt;br&gt;Camel&lt;br&gt;&lt;/font&gt;" style="rounded=0;whiteSpace=wrap;html=1;" vertex="1" parent="1">
          <mxGeometry x="735" y="320" width="70" height="60" as="geometry" />
        </mxCell>
        <mxCell id="9lNRE88ECmn4ZLgAbCR3-9" value="&lt;font style=&quot;font-size: 14px;&quot; face=&quot;Times New Roman&quot;&gt;Class &lt;br&gt;Donkey&lt;br&gt;&lt;/font&gt;" style="rounded=0;whiteSpace=wrap;html=1;" vertex="1" parent="1">
          <mxGeometry x="840" y="320" width="70" height="60" as="geometry" />
        </mxCell>
        <mxCell id="9lNRE88ECmn4ZLgAbCR3-29" style="edgeStyle=orthogonalEdgeStyle;rounded=0;orthogonalLoop=1;jettySize=auto;html=1;entryX=0.25;entryY=1;entryDx=0;entryDy=0;" edge="1" parent="1">
          <mxGeometry relative="1" as="geometry">
            <mxPoint x="659.99" y="320" as="sourcePoint" />
            <mxPoint x="739.99" y="260" as="targetPoint" />
            <Array as="points">
              <mxPoint x="659.99" y="290" />
              <mxPoint x="739.99" y="290" />
            </Array>
          </mxGeometry>
        </mxCell>
        <mxCell id="9lNRE88ECmn4ZLgAbCR3-30" value="&lt;font style=&quot;font-size: 14px;&quot; face=&quot;Times New Roman&quot;&gt;Extends&lt;/font&gt;" style="edgeLabel;html=1;align=center;verticalAlign=middle;resizable=0;points=[];" vertex="1" connectable="0" parent="9lNRE88ECmn4ZLgAbCR3-29">
          <mxGeometry x="0.0746" relative="1" as="geometry">
            <mxPoint as="offset" />
          </mxGeometry>
        </mxCell>
        <mxCell id="9lNRE88ECmn4ZLgAbCR3-31" style="edgeStyle=orthogonalEdgeStyle;rounded=0;orthogonalLoop=1;jettySize=auto;html=1;entryX=0.5;entryY=1;entryDx=0;entryDy=0;" edge="1" parent="1">
          <mxGeometry relative="1" as="geometry">
            <mxPoint x="769.99" y="320" as="sourcePoint" />
            <mxPoint x="769.99" y="260" as="targetPoint" />
          </mxGeometry>
        </mxCell>
        <mxCell id="9lNRE88ECmn4ZLgAbCR3-32" value="&lt;font style=&quot;font-size: 14px;&quot; face=&quot;Times New Roman&quot;&gt;Extends&lt;/font&gt;" style="edgeLabel;html=1;align=center;verticalAlign=middle;resizable=0;points=[];" vertex="1" connectable="0" parent="9lNRE88ECmn4ZLgAbCR3-31">
          <mxGeometry x="0.0889" relative="1" as="geometry">
            <mxPoint as="offset" />
          </mxGeometry>
        </mxCell>
        <mxCell id="9lNRE88ECmn4ZLgAbCR3-33" style="edgeStyle=orthogonalEdgeStyle;rounded=0;orthogonalLoop=1;jettySize=auto;html=1;entryX=0.75;entryY=1;entryDx=0;entryDy=0;" edge="1" parent="1">
          <mxGeometry relative="1" as="geometry">
            <mxPoint x="879.99" y="320" as="sourcePoint" />
            <mxPoint x="799.99" y="260" as="targetPoint" />
            <Array as="points">
              <mxPoint x="879.99" y="290" />
              <mxPoint x="799.99" y="290" />
            </Array>
          </mxGeometry>
        </mxCell>
        <mxCell id="9lNRE88ECmn4ZLgAbCR3-34" value="&lt;font style=&quot;font-size: 14px;&quot; face=&quot;Times New Roman&quot;&gt;Extends&lt;/font&gt;" style="edgeLabel;html=1;align=center;verticalAlign=middle;resizable=0;points=[];" vertex="1" connectable="0" parent="9lNRE88ECmn4ZLgAbCR3-33">
          <mxGeometry x="0.0095" relative="1" as="geometry">
            <mxPoint as="offset" />
          </mxGeometry>
        </mxCell>
      </root>
    </mxGraphModel>
  </diagram>
</mxfile>
